<svg width="24" height="11" viewBox="0 0 24 11" fill="none" xmlns="http://www.w3.org/2000/svg">
<path d="M10.5349 10.4734L0.418605 1.98936C0.27907 1.87234 0.174884 1.74596 0.106047 1.61021C0.0372096 1.47447 0.00186046 1.3278 0 1.17021C0 0.858156 0.128372 0.585105 0.385116 0.351063C0.64186 0.11702 0.978604 0 1.39535 0H22.6046C23.0232 0 23.3609 0.11702 23.6177 0.351063C23.8744 0.585105 24.0018 0.858156 24 1.17021C24 1.24823 23.8604 1.52128 23.5814 1.98936L13.4651 10.4734C13.2325 10.6684 13 10.805 12.7674 10.883C12.5349 10.961 12.2791 11 12 11C11.7209 11 11.4651 10.961 11.2326 10.883C11 10.805 10.7674 10.6684 10.5349 10.4734Z" fill="#1771B7"/>
</svg>
